<svg width="70" height="31" viewBox="0 0 70 31" fill="none" xmlns="http://www.w3.org/2000/svg">
<path d="M6.55762 11.6221C6.54134 11.7767 6.51286 11.9191 6.47217 12.0493C6.43148 12.1795 6.41113 12.3382 6.41113 12.5254C6.41113 12.7614 6.41927 13.0015 6.43555 13.2456C6.45182 13.4897 6.45996 13.7176 6.45996 13.9292C6.45996 14.1489 6.43555 14.328 6.38672 14.4663C6.34603 14.6047 6.28906 14.7267 6.21582 14.8325C6.15072 14.9302 6.07747 15.0238 5.99609 15.1133C5.91471 15.2028 5.8374 15.3086 5.76416 15.4307C5.69906 15.5527 5.64209 15.7074 5.59326 15.8945C5.55257 16.0817 5.53223 16.3177 5.53223 16.6025C5.53223 17.1803 5.5485 17.7785 5.58105 18.397C5.61361 19.0073 5.62988 19.6584 5.62988 20.3501C5.62988 20.578 5.61768 20.7936 5.59326 20.9971C5.57699 21.2005 5.55257 21.404 5.52002 21.6074C5.48747 21.8027 5.44678 22.0021 5.39795 22.2056C5.35726 22.4009 5.3125 22.6084 5.26367 22.8281C5.20671 23.0804 5.15381 23.3042 5.10498 23.4995C5.05615 23.6867 4.97477 23.8454 4.86084 23.9756C4.75505 24.1058 4.59635 24.2035 4.38477 24.2686C4.18132 24.3418 3.89648 24.3784 3.53027 24.3784C3.26172 24.3784 3.06641 24.3174 2.94434 24.1953C2.82227 24.0814 2.72868 23.9308 2.66357 23.7437C2.60661 23.5483 2.55778 23.3327 2.51709 23.0967C2.4764 22.8525 2.40723 22.6043 2.30957 22.3521C2.24447 22.2056 2.17529 22.0916 2.10205 22.0103C2.02881 21.9207 1.95964 21.8312 1.89453 21.7417C1.83757 21.644 1.78874 21.526 1.74805 21.3877C1.70736 21.2412 1.68701 21.0378 1.68701 20.7773C1.68701 20.5658 1.69515 20.3379 1.71143 20.0938C1.73584 19.8496 1.76025 19.6014 1.78467 19.3491C1.80908 19.0887 1.82943 18.8283 1.8457 18.5679C1.87012 18.2993 1.88232 18.0348 1.88232 17.7744C1.88232 17.5465 1.86605 17.3472 1.8335 17.1763C1.80094 17.0054 1.76432 16.8426 1.72363 16.688C1.69108 16.5334 1.65853 16.3747 1.62598 16.2119C1.59342 16.041 1.57715 15.8376 1.57715 15.6016C1.57715 15.3737 1.58936 15.1906 1.61377 15.0522C1.64632 14.9139 1.67887 14.7918 1.71143 14.686C1.75212 14.5802 1.78467 14.4785 1.80908 14.3809C1.84163 14.2832 1.85791 14.1652 1.85791 14.0269C1.85791 13.8804 1.81315 13.742 1.72363 13.6118C1.64225 13.4735 1.54867 13.3433 1.44287 13.2212C1.34521 13.0991 1.2557 12.9811 1.17432 12.8672C1.09294 12.7451 1.06038 12.6312 1.07666 12.5254C1.07666 12.4603 1.08887 12.383 1.11328 12.2935C1.1377 12.2039 1.16211 12.1104 1.18652 12.0127C1.21908 11.9069 1.24756 11.8052 1.27197 11.7075C1.29639 11.6017 1.30859 11.5 1.30859 11.4023C1.30859 11.0687 1.26383 10.7472 1.17432 10.438C1.09294 10.1287 1.05225 9.83171 1.05225 9.54688C1.05225 9.50618 1.05225 9.46549 1.05225 9.4248C1.05225 9.38411 1.06038 9.34342 1.07666 9.30273C1.09294 9.20508 1.14583 9.07894 1.23535 8.92432C1.32487 8.76156 1.4266 8.60693 1.54053 8.46045C1.65446 8.30583 1.76839 8.17562 1.88232 8.06982C1.99626 7.95589 2.08171 7.89893 2.13867 7.89893C2.1875 7.89893 2.23226 7.90299 2.27295 7.91113C2.32178 7.91927 2.36654 7.92334 2.40723 7.92334C2.56999 7.92334 2.77751 7.90706 3.02979 7.87451C3.2902 7.84196 3.55876 7.82568 3.83545 7.82568C4.0389 7.82568 4.24235 7.83382 4.4458 7.8501C4.64925 7.85824 4.83643 7.87451 5.00732 7.89893C5.18636 7.92334 5.34098 7.95589 5.47119 7.99658C5.60954 8.03727 5.71533 8.09017 5.78857 8.15527C5.81299 8.17155 5.85775 8.24886 5.92285 8.38721C5.99609 8.52555 6.0734 8.68018 6.15479 8.85107C6.23617 9.01383 6.30534 9.17253 6.3623 9.32715C6.42741 9.47363 6.4681 9.57129 6.48438 9.62012C6.50879 9.75846 6.52913 9.95378 6.54541 10.2061C6.56982 10.4583 6.58203 10.7228 6.58203 10.9995C6.58203 11.0972 6.57796 11.203 6.56982 11.3169C6.56169 11.4227 6.55762 11.5244 6.55762 11.6221ZM18.9966 18.751C18.9966 19.0277 18.9722 19.3003 18.9233 19.5688C18.8745 19.8374 18.8501 20.0978 18.8501 20.3501C18.8501 20.5129 18.8623 20.6756 18.8867 20.8384C18.9111 20.993 18.9233 21.1476 18.9233 21.3022C18.9233 21.3348 18.9071 21.404 18.8745 21.5098C18.842 21.6156 18.7891 21.7336 18.7158 21.8638C18.6507 21.994 18.5612 22.1242 18.4473 22.2544C18.3415 22.3765 18.2153 22.466 18.0688 22.5229C17.9712 22.5636 17.8573 22.5881 17.7271 22.5962C17.605 22.6043 17.4707 22.6125 17.3242 22.6206C17.1859 22.6206 17.0394 22.6247 16.8848 22.6328C16.7383 22.6328 16.5918 22.645 16.4453 22.6694C16.2419 22.7101 16.0628 22.7549 15.9082 22.8037C15.7617 22.8525 15.6071 22.877 15.4443 22.877C15.1514 22.877 14.9276 22.7996 14.7729 22.645C14.6265 22.4823 14.5166 22.2829 14.4434 22.0469C14.3783 21.8109 14.3376 21.5627 14.3213 21.3022C14.305 21.0418 14.2887 20.8058 14.2725 20.5942C14.248 20.3175 14.2155 20.0775 14.1748 19.874C14.1341 19.6624 14.1056 19.4631 14.0894 19.2759C14.0894 19.1619 14.0934 19.0562 14.1016 18.9585C14.1178 18.8608 14.126 18.7673 14.126 18.6777C14.126 18.4661 14.1138 18.2708 14.0894 18.0918C14.0649 17.9046 14.012 17.7459 13.9307 17.6157C13.8493 17.4855 13.7231 17.3838 13.5522 17.3105C13.3895 17.2373 13.1698 17.2007 12.8931 17.2007C12.6978 17.2007 12.4862 17.2292 12.2583 17.2861C12.0304 17.335 11.8188 17.4163 11.6235 17.5303C11.4282 17.6442 11.2655 17.7866 11.1353 17.9575C11.005 18.1284 10.9399 18.3278 10.9399 18.5557C10.9399 18.6452 10.9562 18.7428 10.9888 18.8486C11.0295 18.9544 11.0498 19.0724 11.0498 19.2026C11.0498 19.4305 11.0213 19.6665 10.9644 19.9106C10.9155 20.1466 10.8911 20.3745 10.8911 20.5942C10.8911 20.936 10.9155 21.2534 10.9644 21.5464C11.0213 21.8394 11.0498 22.0916 11.0498 22.3032C11.0498 22.5881 11.0335 22.8363 11.001 23.0479C10.9766 23.2594 10.9237 23.4344 10.8423 23.5728C10.7609 23.7111 10.6429 23.8169 10.4883 23.8901C10.3418 23.9634 10.1506 24 9.91455 24C9.5402 24 9.2513 23.9105 9.04785 23.7314C8.8444 23.5524 8.74268 23.2757 8.74268 22.9014C8.74268 22.763 8.74674 22.6206 8.75488 22.4741C8.76302 22.3195 8.76709 22.1608 8.76709 21.998C8.76709 21.7783 8.74268 21.5952 8.69385 21.4487C8.64502 21.3022 8.58398 21.1598 8.51074 21.0215C8.44564 20.8831 8.3724 20.7367 8.29102 20.582C8.21777 20.4193 8.15267 20.2158 8.0957 19.9717C8.07943 19.9473 8.07129 19.9188 8.07129 19.8862C8.07129 19.8537 8.07129 19.8171 8.07129 19.7764C8.07129 19.6868 8.07536 19.5851 8.0835 19.4712C8.09163 19.3491 8.0957 19.2271 8.0957 19.105C8.0957 18.7795 8.07536 18.4295 8.03467 18.0552C7.99398 17.6808 7.94515 17.2983 7.88818 16.9077C7.83936 16.5171 7.7946 16.1346 7.75391 15.7603C7.71322 15.3778 7.69287 15.0156 7.69287 14.6738C7.69287 14.3727 7.75798 14.1245 7.88818 13.9292C8.01839 13.7339 8.18522 13.5793 8.38867 13.4653C8.59212 13.3514 8.81592 13.2741 9.06006 13.2334C9.3042 13.1927 9.5402 13.1724 9.76807 13.1724C10.2075 13.1724 10.5575 13.2904 10.8179 13.5264C11.0864 13.7542 11.2207 14.0391 11.2207 14.3809C11.2207 14.4948 11.2126 14.6169 11.1963 14.7471C11.18 14.8691 11.1719 14.9953 11.1719 15.1255C11.1719 15.215 11.1841 15.3167 11.2085 15.4307C11.241 15.5446 11.3021 15.6016 11.3916 15.6016C11.4811 15.6016 11.6317 15.5731 11.8433 15.5161C12.063 15.451 12.2909 15.3778 12.5269 15.2964C12.771 15.215 12.9948 15.1418 13.1982 15.0767C13.4017 15.0116 13.536 14.9709 13.6011 14.9546C13.9103 14.8976 14.1789 14.8732 14.4067 14.8813C14.6346 14.8895 14.8462 14.861 15.0415 14.7959C15.2287 14.7471 15.3792 14.6982 15.4932 14.6494C15.6152 14.6006 15.7251 14.5558 15.8228 14.5151C15.9285 14.4744 16.0343 14.4419 16.1401 14.4175C16.2541 14.3931 16.3965 14.3809 16.5674 14.3809C16.8441 14.3809 17.0435 14.4134 17.1655 14.4785C17.2957 14.5355 17.3934 14.6128 17.4585 14.7104C17.5236 14.8 17.5765 14.9017 17.6172 15.0156C17.6579 15.1296 17.7271 15.2394 17.8247 15.3452C17.9468 15.4836 18.0729 15.5975 18.2031 15.687C18.3415 15.7765 18.4635 15.862 18.5693 15.9434C18.6833 16.0247 18.7728 16.1143 18.8379 16.2119C18.9111 16.3096 18.9478 16.4316 18.9478 16.5781C18.9478 16.6921 18.9315 16.8101 18.8989 16.9321C18.8664 17.0542 18.8501 17.2007 18.8501 17.3716C18.8501 17.5832 18.8745 17.807 18.9233 18.043C18.9722 18.279 18.9966 18.515 18.9966 18.751ZM30.6665 16.5781C30.6665 16.627 30.6706 16.6717 30.6787 16.7124C30.6868 16.7531 30.6909 16.7979 30.6909 16.8467C30.6909 17.0339 30.6665 17.2251 30.6177 17.4204C30.577 17.6157 30.5241 17.811 30.459 18.0063C30.3939 18.2017 30.3288 18.401 30.2637 18.6045C30.1986 18.7998 30.1497 18.9992 30.1172 19.2026C30.1009 19.284 30.0928 19.3776 30.0928 19.4834C30.0928 19.5811 30.0928 19.6828 30.0928 19.7886C30.0928 19.8944 30.0887 19.9961 30.0806 20.0938C30.0724 20.1914 30.0602 20.2769 30.0439 20.3501C30.0033 20.5535 29.9219 20.7733 29.7998 21.0093C29.6777 21.2453 29.5597 21.4691 29.4458 21.6807C29.2749 21.998 29.1203 22.2666 28.9819 22.4863C28.8517 22.6979 28.693 22.8729 28.5059 23.0112C28.3268 23.1414 28.099 23.235 27.8223 23.292C27.5456 23.349 27.1794 23.3774 26.7236 23.3774C26.333 23.3774 25.9383 23.3571 25.5396 23.3164C25.1408 23.2757 24.7542 23.2188 24.3799 23.1455C24.0055 23.0723 23.6556 22.9909 23.3301 22.9014C23.0046 22.8037 22.7238 22.702 22.4878 22.5962C22.2111 22.4741 21.9914 22.3439 21.8286 22.2056C21.6659 22.0672 21.5234 21.9004 21.4014 21.7051C21.2874 21.5098 21.1816 21.2697 21.084 20.9849C20.9863 20.6919 20.8643 20.3298 20.7178 19.8984C20.6445 19.6787 20.5672 19.4631 20.4858 19.2515C20.4126 19.0399 20.3475 18.8283 20.2905 18.6167C20.2336 18.397 20.1888 18.1813 20.1562 17.9697C20.1237 17.75 20.1115 17.5262 20.1196 17.2983C20.1196 17.1681 20.1278 17.0176 20.144 16.8467C20.1685 16.6676 20.1969 16.4927 20.2295 16.3218C20.262 16.1427 20.2987 15.9759 20.3394 15.8213C20.38 15.6585 20.4248 15.5283 20.4736 15.4307C20.5143 15.333 20.5591 15.2516 20.6079 15.1865C20.6649 15.1214 20.7178 15.0563 20.7666 14.9912C20.8154 14.9261 20.8561 14.861 20.8887 14.7959C20.9212 14.7308 20.9375 14.6494 20.9375 14.5518C20.9375 14.4785 20.9294 14.4175 20.9131 14.3687C20.8968 14.3117 20.8765 14.2588 20.8521 14.21C20.8276 14.1611 20.8073 14.1123 20.791 14.0635C20.7747 14.0065 20.7666 13.9455 20.7666 13.8804C20.7666 13.8885 20.7829 13.8438 20.8154 13.7461C20.8561 13.6484 20.909 13.5304 20.9741 13.3921C21.0392 13.2456 21.1165 13.091 21.2061 12.9282C21.3037 12.7573 21.4054 12.6027 21.5112 12.4644C21.6252 12.3179 21.7472 12.1958 21.8774 12.0981C22.0158 12.0005 22.1541 11.9517 22.2925 11.9517H22.5732H22.6709C22.7848 11.9517 22.9232 11.9639 23.0859 11.9883C23.2487 12.0127 23.4237 12.0371 23.6108 12.0615C23.8062 12.0859 24.0096 12.1104 24.2212 12.1348C24.4409 12.1592 24.6566 12.1714 24.8682 12.1714C25.2425 12.1714 25.6209 12.1592 26.0034 12.1348C26.3859 12.1104 26.748 12.0981 27.0898 12.0981C27.5781 12.0981 27.9484 12.1592 28.2007 12.2812C28.4611 12.4033 28.6523 12.5579 28.7744 12.7451C28.9046 12.9242 28.9941 13.1235 29.043 13.3433C29.0999 13.5549 29.1732 13.7583 29.2627 13.9536C29.3278 14.1001 29.4417 14.2588 29.6045 14.4297C29.7673 14.5924 29.9137 14.7918 30.0439 15.0278C30.109 15.1418 30.1497 15.2801 30.166 15.4429C30.1823 15.6056 30.223 15.748 30.2881 15.8701C30.3532 16.0492 30.4264 16.1875 30.5078 16.2852C30.5973 16.3747 30.6502 16.4723 30.6665 16.5781ZM27.749 17.2007C27.7653 17.0379 27.7816 16.8223 27.7979 16.5537C27.8141 16.277 27.8223 16.0085 27.8223 15.748C27.8223 15.6178 27.806 15.4632 27.7734 15.2842C27.7409 15.097 27.6717 14.922 27.5659 14.7593C27.4601 14.5884 27.3055 14.446 27.1021 14.332C26.9067 14.21 26.6463 14.1489 26.3208 14.1489C26.1174 14.1489 25.9058 14.1693 25.686 14.21C25.4744 14.2507 25.2669 14.271 25.0635 14.271C24.9658 14.271 24.8641 14.2669 24.7583 14.2588C24.6525 14.2507 24.5467 14.2466 24.4409 14.2466C24.1561 14.2466 23.9242 14.3076 23.7451 14.4297C23.5661 14.5436 23.4277 14.7023 23.3301 14.9058C23.2324 15.1011 23.1632 15.333 23.1226 15.6016C23.09 15.8701 23.0737 16.1549 23.0737 16.4561C23.0737 16.8467 23.0859 17.1722 23.1104 17.4326C23.1429 17.693 23.1917 17.9087 23.2568 18.0796C23.3219 18.2505 23.4033 18.3888 23.501 18.4946C23.5986 18.5923 23.7207 18.6777 23.8672 18.751C23.9974 18.7998 24.1032 18.8242 24.1846 18.8242C24.266 18.8242 24.3677 18.8486 24.4897 18.8975C24.563 18.9219 24.62 18.9585 24.6606 19.0073C24.7013 19.048 24.738 19.0928 24.7705 19.1416C24.8112 19.1823 24.8519 19.2189 24.8926 19.2515C24.9414 19.284 24.9984 19.3003 25.0635 19.3003C25.1204 19.3003 25.1815 19.2962 25.2466 19.2881C25.3198 19.2799 25.3931 19.2759 25.4663 19.2759C25.564 19.2759 25.6494 19.2922 25.7227 19.3247C25.7959 19.3573 25.8569 19.3979 25.9058 19.4468C25.9627 19.4875 26.0116 19.5241 26.0522 19.5566C26.1011 19.5892 26.1499 19.6055 26.1987 19.6055C26.2231 19.5973 26.3045 19.5566 26.4429 19.4834C26.5894 19.4102 26.744 19.3288 26.9067 19.2393C27.0695 19.1416 27.216 19.0521 27.3462 18.9707C27.4845 18.8893 27.5578 18.8405 27.5659 18.8242C27.6066 18.7591 27.6351 18.6574 27.6514 18.519C27.6758 18.3726 27.6921 18.2179 27.7002 18.0552C27.7165 17.8924 27.7246 17.7337 27.7246 17.5791C27.7327 17.4245 27.7409 17.2983 27.749 17.2007ZM42.1533 12.4766C42.137 12.5905 42.1004 12.6922 42.0435 12.7817C41.9865 12.8713 41.9458 12.9771 41.9214 13.0991C41.8726 13.2537 41.8522 13.4043 41.8604 13.5508C41.8766 13.6891 41.8644 13.799 41.8237 13.8804C41.7749 14.0269 41.6813 14.1693 41.543 14.3076C41.4046 14.446 41.2988 14.6087 41.2256 14.7959C41.1849 14.8773 41.1605 14.9749 41.1523 15.0889C41.1442 15.2028 41.1198 15.3167 41.0791 15.4307C41.0384 15.5039 40.9896 15.5771 40.9326 15.6504C40.8838 15.7236 40.8472 15.7969 40.8228 15.8701C40.7983 15.9759 40.7902 16.0939 40.7983 16.2241C40.8065 16.3543 40.7902 16.4723 40.7495 16.5781C40.7007 16.7165 40.6315 16.8467 40.542 16.9688C40.4525 17.0827 40.3955 17.2088 40.3711 17.3472C40.3304 17.5018 40.3141 17.6686 40.3223 17.8477C40.3304 18.0186 40.3223 18.1854 40.2979 18.3481C40.2816 18.4377 40.245 18.5312 40.188 18.6289C40.131 18.7266 40.0741 18.8242 40.0171 18.9219C39.9683 19.0195 39.9194 19.1172 39.8706 19.2148C39.8299 19.3125 39.8136 19.4061 39.8218 19.4956C39.8218 19.5607 39.8258 19.6258 39.834 19.6909C39.8421 19.7479 39.8462 19.8008 39.8462 19.8496C39.8462 19.988 39.8055 20.1263 39.7241 20.2646C39.6509 20.403 39.5654 20.5413 39.4678 20.6797C39.3783 20.818 39.2928 20.9564 39.2114 21.0947C39.1382 21.2331 39.1016 21.3755 39.1016 21.522C39.1016 21.6278 39.1097 21.7214 39.126 21.8027C39.1423 21.876 39.1504 21.9492 39.1504 22.0225C39.1504 22.1038 39.1178 22.2259 39.0527 22.3887C38.9958 22.5433 38.8778 22.702 38.6987 22.8647C38.5197 23.0194 38.2633 23.1577 37.9297 23.2798C37.6042 23.3937 37.1769 23.4507 36.6479 23.4507C36.2329 23.4507 35.9359 23.3937 35.7568 23.2798C35.5778 23.1659 35.4517 23.0072 35.3784 22.8037C35.3052 22.5921 35.2441 22.3439 35.1953 22.0591C35.1465 21.7743 35.0407 21.4609 34.8779 21.1191C34.7884 20.9401 34.6867 20.7936 34.5728 20.6797C34.4588 20.5576 34.3449 20.4518 34.231 20.3623C34.1252 20.2728 34.0234 20.1873 33.9258 20.106C33.8363 20.0246 33.7671 19.931 33.7183 19.8252C33.6938 19.7764 33.6735 19.7113 33.6572 19.6299C33.6491 19.5485 33.6369 19.459 33.6206 19.3613C33.6125 19.2637 33.5962 19.1619 33.5718 19.0562C33.5555 18.9504 33.5311 18.8486 33.4985 18.751C33.4253 18.5801 33.3398 18.4092 33.2422 18.2383C33.1445 18.0674 33.0469 17.9046 32.9492 17.75C32.8516 17.5872 32.758 17.4367 32.6685 17.2983C32.5871 17.1519 32.5301 17.0176 32.4976 16.8955C32.4487 16.7572 32.4243 16.6107 32.4243 16.4561C32.4243 16.2933 32.3999 16.1265 32.3511 15.9556C32.2616 15.6707 32.1354 15.3696 31.9727 15.0522C31.8099 14.7267 31.6471 14.3931 31.4844 14.0513C31.3298 13.7095 31.1955 13.3677 31.0815 13.0259C30.9676 12.6759 30.9147 12.3341 30.9229 12.0005C30.9229 11.8215 30.9513 11.6546 31.0083 11.5C31.0653 11.3454 31.1711 11.2111 31.3257 11.0972C31.4152 11.0321 31.5658 10.9914 31.7773 10.9751C31.9971 10.9507 32.2371 10.8937 32.4976 10.8042C32.758 10.7228 32.9899 10.6252 33.1934 10.5112C33.4049 10.3892 33.6003 10.3281 33.7793 10.3281C34.1862 10.3281 34.4873 10.3688 34.6826 10.4502C34.8861 10.5316 35.0366 10.6536 35.1343 10.8164C35.2319 10.971 35.3092 11.1704 35.3662 11.4146C35.4313 11.6506 35.5249 11.9272 35.647 12.2446C35.7121 12.383 35.7894 12.5254 35.8789 12.6719C35.9766 12.8184 36.0579 12.9852 36.123 13.1724C36.1719 13.3514 36.2044 13.5426 36.2207 13.7461C36.237 13.9495 36.2777 14.1489 36.3428 14.3442C36.4567 14.6942 36.5747 15.0034 36.6968 15.272C36.8188 15.5324 36.9328 15.7887 37.0386 16.041C37.1525 16.2933 37.2583 16.5578 37.356 16.8345C37.4536 17.1112 37.535 17.4408 37.6001 17.8232C37.7954 17.5384 37.9541 17.221 38.0762 16.8711C38.2064 16.513 38.3244 16.1468 38.4302 15.7725C38.5441 15.39 38.658 15.0116 38.772 14.6372C38.8859 14.2629 39.0283 13.9089 39.1992 13.5752C39.2643 13.4613 39.3376 13.3555 39.4189 13.2578C39.5003 13.152 39.5614 13.0503 39.6021 12.9526C39.659 12.7655 39.6916 12.5498 39.6997 12.3057C39.7078 12.0534 39.7363 11.8174 39.7852 11.5977C39.8421 11.3779 39.9398 11.1908 40.0781 11.0361C40.2246 10.8815 40.4647 10.8042 40.7983 10.8042C40.9937 10.8042 41.1727 10.8449 41.3354 10.9263C41.4982 10.9995 41.6406 11.1012 41.7627 11.2314C41.8848 11.3617 41.9784 11.5163 42.0435 11.6953C42.1167 11.8743 42.1533 12.0656 42.1533 12.269V12.4766ZM46.377 9.77881C46.3118 9.94971 46.1857 10.0921 45.9985 10.2061C45.8114 10.3118 45.5916 10.3973 45.3394 10.4624C45.0952 10.5275 44.8348 10.5763 44.5581 10.6089C44.2814 10.6333 44.021 10.6455 43.7769 10.6455C43.3537 10.6455 43.0322 10.5397 42.8125 10.3281C42.5928 10.1165 42.4829 9.72184 42.4829 9.14404C42.4829 8.91618 42.5155 8.70459 42.5806 8.50928C42.6538 8.31396 42.7271 8.13493 42.8003 7.97217C42.8817 7.80941 42.9549 7.66699 43.02 7.54492C43.0933 7.42285 43.1299 7.31706 43.1299 7.22754C43.2275 7.1543 43.3618 7.08919 43.5327 7.03223C43.7118 6.96712 43.8908 6.91423 44.0698 6.87354C44.2489 6.82471 44.4116 6.78809 44.5581 6.76367C44.7046 6.73926 44.8022 6.72705 44.8511 6.72705C45.2661 6.72705 45.6079 6.80029 45.8765 6.94678C46.145 7.09326 46.2793 7.26009 46.2793 7.44727C46.2793 7.53678 46.2712 7.63444 46.2549 7.74023C46.2386 7.83789 46.2305 7.92334 46.2305 7.99658C46.2467 8.20817 46.2874 8.44417 46.3525 8.70459C46.4176 8.95687 46.4502 9.1888 46.4502 9.40039C46.4502 9.54688 46.4258 9.67301 46.377 9.77881ZM47.085 23.1455C47.0199 23.2432 46.8856 23.349 46.6821 23.4629C46.4868 23.5687 46.263 23.6704 46.0107 23.7681C45.7585 23.8576 45.5021 23.9308 45.2417 23.9878C44.9894 24.0448 44.7778 24.0732 44.6069 24.0732C44.2896 24.0407 44.021 23.9674 43.8013 23.8535C43.5815 23.7396 43.4025 23.585 43.2642 23.3896C43.1258 23.1943 43.0241 22.9665 42.959 22.7061C42.8939 22.4456 42.8491 22.1527 42.8247 21.8271C42.8247 21.6644 42.8491 21.5016 42.8979 21.3389C42.9549 21.168 42.9834 20.9808 42.9834 20.7773C42.9834 20.5495 42.9671 20.3216 42.9346 20.0938C42.902 19.8577 42.8857 19.6258 42.8857 19.3979C42.8857 19.2108 42.8898 18.9707 42.8979 18.6777C42.9142 18.3848 42.9346 18.0674 42.959 17.7256C42.9834 17.3838 43.0119 17.0339 43.0444 16.6758C43.0851 16.3177 43.1258 15.98 43.1665 15.6626C43.2072 15.3452 43.252 15.0645 43.3008 14.8203C43.3496 14.568 43.4025 14.3849 43.4595 14.271C43.5978 13.9862 43.7728 13.7786 43.9844 13.6484C44.196 13.5182 44.4279 13.4531 44.6802 13.4531C45.0057 13.4531 45.2783 13.5182 45.498 13.6484C45.7178 13.7786 45.8927 13.9658 46.0229 14.21C46.1613 14.4541 46.259 14.7511 46.3159 15.1011C46.3729 15.4429 46.4014 15.8254 46.4014 16.2485C46.4014 16.4357 46.3932 16.6188 46.377 16.7979C46.3607 16.9769 46.3525 17.1519 46.3525 17.3228C46.3525 17.6646 46.3851 18.0023 46.4502 18.3359C46.5234 18.6696 46.6007 18.991 46.6821 19.3003C46.7716 19.6095 46.853 19.9066 46.9263 20.1914C46.9995 20.4762 47.0361 20.7367 47.0361 20.9727C47.0361 21.0459 47.0321 21.1313 47.0239 21.229C47.0158 21.3185 47.0117 21.3999 47.0117 21.4731C47.0117 21.7743 47.0402 22.0225 47.0972 22.2178C47.1541 22.4049 47.1826 22.5758 47.1826 22.7305C47.1826 22.877 47.1501 23.0153 47.085 23.1455ZM57.5464 12.2446C57.8963 12.4481 58.0713 12.7492 58.0713 13.1479C58.0713 13.2944 58.0428 13.4491 57.9858 13.6118C57.9289 13.7664 57.8475 13.9129 57.7417 14.0513C57.644 14.1896 57.522 14.3035 57.3755 14.3931C57.229 14.4826 57.0703 14.5273 56.8994 14.5273C56.818 14.5273 56.7367 14.5233 56.6553 14.5151C56.5739 14.507 56.4966 14.5029 56.4233 14.5029C56.3013 14.5029 56.1792 14.5151 56.0571 14.5396C55.9351 14.564 55.8171 14.5884 55.7031 14.6128C55.5973 14.6372 55.4997 14.6616 55.4102 14.686C55.3206 14.7104 55.2474 14.7227 55.1904 14.7227C55.0684 14.7227 54.9341 14.7104 54.7876 14.686C54.6493 14.6616 54.5109 14.6494 54.3726 14.6494C54.1447 14.6494 53.9697 14.6738 53.8477 14.7227C53.7337 14.7715 53.6523 14.8488 53.6035 14.9546C53.5547 15.0604 53.5262 15.1987 53.5181 15.3696C53.5181 15.5324 53.5181 15.7277 53.5181 15.9556C53.5181 16.3381 53.5018 16.7409 53.4692 17.1641C53.4367 17.5872 53.4001 18.0145 53.3594 18.4458C53.3187 18.869 53.2821 19.2881 53.2495 19.7031C53.217 20.11 53.2007 20.4844 53.2007 20.8262C53.2007 21.0378 53.2088 21.2371 53.2251 21.4243C53.2414 21.6115 53.2495 21.7946 53.2495 21.9736C53.2495 22.0225 53.2454 22.0794 53.2373 22.1445C53.2292 22.2015 53.2251 22.2544 53.2251 22.3032C53.2088 22.3602 53.1641 22.4863 53.0908 22.6816C53.0257 22.877 52.9443 23.0885 52.8467 23.3164C52.749 23.5443 52.6473 23.7559 52.5415 23.9512C52.4438 24.1383 52.3625 24.2563 52.2974 24.3052C52.2323 24.3459 52.1509 24.3703 52.0532 24.3784C51.9637 24.3947 51.862 24.4028 51.748 24.4028C51.1947 24.4028 50.7878 24.3133 50.5273 24.1343C50.2751 23.9634 50.1489 23.6948 50.1489 23.3286C50.1489 23.174 50.1571 23.0153 50.1733 22.8525C50.1896 22.6898 50.1978 22.5392 50.1978 22.4009C50.1978 21.9451 50.1693 21.4365 50.1123 20.875C50.0635 20.3135 50.0024 19.7194 49.9292 19.0928C49.8641 18.458 49.8031 17.7988 49.7461 17.1152C49.6973 16.4316 49.6729 15.7358 49.6729 15.0278C49.4368 15.0767 49.2212 15.1011 49.0259 15.1011C48.7899 15.1011 48.5701 15.0726 48.3667 15.0156C48.1632 14.9505 47.9842 14.861 47.8296 14.7471C47.6831 14.625 47.5651 14.4785 47.4756 14.3076C47.3861 14.1367 47.3413 13.9414 47.3413 13.7217C47.3413 13.445 47.4023 13.2293 47.5244 13.0747C47.6465 12.9119 47.8052 12.7899 48.0005 12.7085C48.2039 12.619 48.4359 12.5498 48.6963 12.501C48.9567 12.4521 49.2253 12.3952 49.502 12.3301V11.8784C49.502 11.5122 49.4775 11.1704 49.4287 10.853C49.3799 10.5356 49.3229 10.2345 49.2578 9.94971C49.2008 9.65674 49.1479 9.38005 49.0991 9.11963C49.0503 8.85107 49.0259 8.58659 49.0259 8.32617C49.0259 8.07389 49.0422 7.8623 49.0747 7.69141C49.1154 7.52051 49.1805 7.37809 49.27 7.26416C49.3595 7.14209 49.4775 7.04036 49.624 6.95898C49.7786 6.86947 49.9699 6.78402 50.1978 6.70264C50.2954 6.66195 50.4215 6.62126 50.5762 6.58057C50.7308 6.53988 50.8976 6.50326 51.0767 6.4707C51.2638 6.43001 51.4551 6.40153 51.6504 6.38525C51.8538 6.36084 52.0532 6.34863 52.2485 6.34863C52.4764 6.34863 52.7002 6.36898 52.9199 6.40967C53.1396 6.44222 53.335 6.52767 53.5059 6.66602C53.6849 6.79622 53.8273 6.99561 53.9331 7.26416C54.0389 7.53271 54.0918 7.90299 54.0918 8.375C54.0918 8.62728 54.0837 8.88363 54.0674 9.14404C54.0592 9.40446 54.0348 9.61605 53.9941 9.77881C53.9697 9.8846 53.929 9.98633 53.8721 10.084C53.8151 10.1816 53.7581 10.2752 53.7012 10.3647C53.6523 10.4543 53.6076 10.5438 53.5669 10.6333C53.5262 10.7147 53.5099 10.7961 53.5181 10.8774C53.5181 10.967 53.5303 11.0809 53.5547 11.2192C53.5791 11.3494 53.5913 11.4593 53.5913 11.5488C53.5913 11.679 53.5669 11.793 53.5181 11.8906C53.4692 11.9883 53.4448 12.0819 53.4448 12.1714C53.4448 12.2853 53.5059 12.3586 53.6279 12.3911C53.7581 12.4155 53.9412 12.4277 54.1772 12.4277C54.5109 12.4277 54.8039 12.4155 55.0562 12.3911C55.3084 12.3586 55.5404 12.326 55.752 12.2935C55.9717 12.2528 56.1792 12.2202 56.3745 12.1958C56.5698 12.1632 56.7773 12.147 56.9971 12.147C57.0947 12.147 57.1924 12.1551 57.29 12.1714C57.3877 12.1795 57.4731 12.2039 57.5464 12.2446ZM69.3262 21.0703C69.3424 21.2331 69.3587 21.3836 69.375 21.522C69.3994 21.6603 69.4116 21.7865 69.4116 21.9004C69.4116 22.0306 69.4035 22.1283 69.3872 22.1934C69.3709 22.2585 69.3424 22.3154 69.3018 22.3643C69.2692 22.4131 69.2204 22.466 69.1553 22.5229C69.0983 22.5799 69.0251 22.6654 68.9355 22.7793C68.8379 22.9339 68.7402 23.0967 68.6426 23.2676C68.5531 23.4385 68.4432 23.5931 68.313 23.7314C68.1909 23.8698 68.0444 23.9837 67.8735 24.0732C67.7108 24.1709 67.5114 24.2197 67.2754 24.2197C67.1289 24.2197 66.9702 24.2075 66.7993 24.1831C66.6366 24.1668 66.4697 24.1465 66.2988 24.1221C66.1361 24.0977 65.9733 24.0732 65.8105 24.0488C65.6559 24.0326 65.5135 24.0244 65.3833 24.0244C64.8218 24.0244 64.2521 24.0163 63.6743 24C63.1047 23.9756 62.5635 23.9023 62.0508 23.7803C61.8799 23.7314 61.7008 23.6908 61.5137 23.6582C61.3265 23.6175 61.1393 23.5728 60.9521 23.5239C60.765 23.4751 60.5859 23.4181 60.415 23.353C60.2441 23.2798 60.0977 23.1943 59.9756 23.0967C59.6257 22.7467 59.3449 22.3643 59.1333 21.9492C58.9299 21.5342 58.7671 21.0662 58.645 20.5454C58.5311 20.0246 58.4497 19.4468 58.4009 18.812C58.3521 18.1772 58.3114 17.4652 58.2788 16.6758C58.2625 16.3991 58.234 16.1346 58.1934 15.8823C58.1527 15.63 58.1323 15.4347 58.1323 15.2964C58.1323 15.2313 58.1608 15.1296 58.2178 14.9912C58.2829 14.8529 58.3276 14.7227 58.3521 14.6006C58.3927 14.4215 58.409 14.2466 58.4009 14.0757C58.4009 13.8966 58.409 13.7868 58.4253 13.7461C58.4497 13.6891 58.4985 13.624 58.5718 13.5508C58.6532 13.4694 58.7386 13.384 58.8281 13.2944C58.9258 13.2049 59.0194 13.1154 59.1089 13.0259C59.2065 12.9282 59.2879 12.8346 59.353 12.7451C59.41 12.6637 59.5483 12.5661 59.7681 12.4521C59.9959 12.3301 60.2767 12.1999 60.6104 12.0615C60.944 11.9232 61.3184 11.7889 61.7334 11.6587C62.1484 11.5203 62.5716 11.3983 63.0029 11.2925C63.4424 11.1785 63.8778 11.089 64.3091 11.0239C64.7485 10.9507 65.1554 10.91 65.5298 10.9019C65.6844 10.9019 65.8553 10.9303 66.0425 10.9873C66.2378 11.0443 66.429 11.1216 66.6162 11.2192C66.8115 11.3088 66.9987 11.4146 67.1777 11.5366C67.3568 11.6587 67.5073 11.7808 67.6294 11.9028C67.6945 11.9679 67.7555 12.0778 67.8125 12.2324C67.8695 12.3789 67.9346 12.501 68.0078 12.5986C68.1868 12.8265 68.3089 12.9974 68.374 13.1113C68.4473 13.2253 68.492 13.327 68.5083 13.4165C68.5327 13.506 68.5409 13.6037 68.5327 13.7095C68.5246 13.8153 68.5327 13.978 68.5571 14.1978C68.5734 14.3687 68.5856 14.5111 68.5938 14.625C68.6019 14.7389 68.606 14.8447 68.606 14.9424C68.606 15.04 68.606 15.1336 68.606 15.2231C68.606 15.3127 68.606 15.4144 68.606 15.5283C68.606 15.7643 68.5449 15.9556 68.4229 16.1021C68.3008 16.2485 68.134 16.3828 67.9224 16.5049C67.7108 16.627 67.4544 16.745 67.1533 16.8589C66.8604 16.9728 66.543 17.1112 66.2012 17.2739C65.9163 17.4123 65.6112 17.5099 65.2856 17.5669C64.9601 17.6239 64.659 17.6523 64.3823 17.6523C64.3416 17.6523 64.3091 17.6523 64.2847 17.6523C64.2603 17.6523 64.2277 17.6442 64.187 17.6279C64.13 17.6198 64.0324 17.6361 63.894 17.6768C63.7557 17.7174 63.597 17.7663 63.418 17.8232C63.2389 17.8721 63.0436 17.9209 62.832 17.9697C62.6286 18.0104 62.4292 18.0308 62.2339 18.0308C62.1037 18.0308 61.9775 18.0511 61.8555 18.0918C61.7415 18.1243 61.6398 18.1691 61.5503 18.2261C61.4608 18.283 61.3875 18.34 61.3306 18.397C61.2817 18.4539 61.2573 18.5068 61.2573 18.5557C61.2573 18.8405 61.3062 19.0684 61.4038 19.2393C61.5096 19.4102 61.6235 19.5404 61.7456 19.6299C61.8921 19.7357 62.0549 19.8089 62.2339 19.8496C62.4373 19.9391 62.6326 20.0002 62.8198 20.0327C63.007 20.0571 63.1942 20.0693 63.3813 20.0693C63.6906 20.0693 64.012 20.0449 64.3457 19.9961C64.6875 19.9473 65.0741 19.9229 65.5054 19.9229C65.7088 19.9229 65.8797 19.9473 66.0181 19.9961C66.1646 20.0449 66.3192 20.0693 66.4819 20.0693C66.6528 20.0693 66.8237 20.0531 66.9946 20.0205C67.1655 19.988 67.3283 19.9513 67.4829 19.9106C67.6375 19.87 67.784 19.8333 67.9224 19.8008C68.0688 19.7682 68.2031 19.752 68.3252 19.752C68.6426 19.752 68.8704 19.8618 69.0088 20.0815C69.1553 20.2931 69.2611 20.6227 69.3262 21.0703ZM64.6021 15.4551C64.6183 15.4144 64.6305 15.3696 64.6387 15.3208C64.6468 15.272 64.6509 15.2231 64.6509 15.1743C64.6509 14.9302 64.6265 14.7145 64.5776 14.5273C64.5369 14.332 64.484 14.1693 64.4189 14.0391C64.362 13.9007 64.2969 13.799 64.2236 13.7339C64.1504 13.6606 64.0853 13.624 64.0283 13.624C63.8737 13.624 63.6418 13.6566 63.3325 13.7217C63.0233 13.7786 62.71 13.8519 62.3926 13.9414C62.0752 14.0309 61.7863 14.1286 61.5259 14.2344C61.2736 14.3402 61.119 14.4378 61.062 14.5273C61.0213 14.5924 60.9928 14.6901 60.9766 14.8203C60.9603 14.9424 60.9521 15.0848 60.9521 15.2476C60.9521 15.5894 60.9725 15.8538 61.0132 16.041C61.062 16.2282 61.1434 16.3218 61.2573 16.3218C61.3306 16.3218 61.4119 16.3096 61.5015 16.2852C61.591 16.2607 61.6764 16.2363 61.7578 16.2119C61.8473 16.1794 61.9246 16.1509 61.9897 16.1265C62.063 16.1021 62.12 16.0858 62.1606 16.0776C62.3397 16.0451 62.5594 16.0207 62.8198 16.0044C63.0802 15.9881 63.3325 15.9637 63.5767 15.9312C63.8289 15.8905 64.0487 15.8376 64.2358 15.7725C64.4312 15.6992 64.5532 15.5934 64.6021 15.4551Z" fill="#F4AF23"/>
</svg>
