<svg width="39" height="57" viewBox="0 0 39 57" fill="none" xmlns="http://www.w3.org/2000/svg">
<g clip-path="url(#clip0_4060_19)">
<path d="M19.5 8.90625C13.6345 8.90625 8.86364 13.7 8.86364 19.5938C8.86364 20.5779 9.65693 21.375 10.6364 21.375C11.6158 21.375 12.4091 20.5779 12.4091 19.5938C12.4091 15.6639 15.5911 12.4688 19.5 12.4688C20.4794 12.4688 21.2727 11.6716 21.2727 10.6875C21.2727 9.70336 20.4794 8.90625 19.5 8.90625ZM10.643 51.1185C10.643 51.4692 10.746 51.811 10.9399 52.1027L13.6555 56.204C13.9846 56.7005 14.5386 56.9989 15.1313 56.9989H23.8676C24.4614 56.9989 25.0154 56.7005 25.3434 56.204L28.0589 52.1027C28.2517 51.811 28.3548 51.4681 28.3559 51.1185L28.3614 46.3114H10.6386L10.643 51.1185ZM19.5 0C8.16784 0 0 9.23689 0 19.5938C0 24.5334 1.82259 29.0399 4.82625 32.4833C6.66989 34.5974 9.56165 39.0294 10.6341 42.7433V42.75H15.9523V42.7366C15.9512 42.2056 15.8726 41.6779 15.7141 41.1703C15.0948 39.1875 13.1858 33.9595 8.82597 28.9609C6.55023 26.3525 5.33369 23.0438 5.32372 19.5938C5.30156 11.3955 11.9349 5.34375 19.5 5.34375C27.3199 5.34375 33.6818 11.7362 33.6818 19.5938C33.6818 23.0416 32.4365 26.3681 30.1751 28.9609C25.8419 33.9272 23.9241 39.1441 23.2947 41.1469C23.1323 41.6618 23.0494 42.1987 23.0488 42.7389V42.75H28.367V42.7444C29.4395 39.0294 32.3312 34.5974 34.1749 32.4844C37.1774 29.0399 39 24.5334 39 19.5938C39 8.77266 30.2693 0 19.5 0Z" fill="#E0F423"/>
</g>
<defs>
<clipPath id="clip0_4060_19">
<rect width="39" height="57" fill="white"/>
</clipPath>
</defs>
</svg>
