<svg xmlns="http://w3.org" viewBox="0 0 128 128" width="100%" height="100%" shape-rendering="crispEdges">
    <defs>
        <!-- Define the core glow color as requested -->
        <rect id="px" width="8" height="8" fill="#F8FF37" />
        <rect id="dark" width="8" height="8" fill="#202020" />
        <rect id="base" width="8" height="8" fill="#6c7a89" />
        <rect id="shine" width="8" height="8" fill="#ffffff" />
        <rect id="bg" width="8" height="8" fill="transparent" />
    </defs>

    <g id="bulb_pixels">
        <!-- Row 1 -->
        <use href="#bg" x="0" y="0"/><use href="#bg" x="8" y="0"/><use href="#bg" x="16" y="0"/><use href="#bg" x="24" y="0"/><use href="#bg" x="32" y="0"/><use href="#bg" x="40" y="0"/><use href="#bg" x="48" y="0"/><use href="#bg" x="56" y="0"/><use href="#bg" x="64" y="0"/><use href="#bg" x="72" y="0"/><use href="#bg" x="80" y="0"/><use href="#bg" x="88" y="0"/><use href="#bg" x="96" y="0"/><use href="#bg" x="104" y="0"/><use href="#bg" x="112" y="0"/><use href="#bg" x="120" y="0"/>

        <!-- Row 2 -->
        <use href="#bg" x="0" y="8"/><use href="#bg" x="8" y="8"/><use href="#bg" x="16" y="8"/><use href="#bg" x="24" y="8"/><use href="#bg" x="32" y="8"/><use href="#dark" x="40" y="8"/><use href="#dark" x="48" y="8"/><use href="#dark" x="56" y="8"/><use href="#dark" x="64" y="8"/><use href="#dark" x="72" y="8"/><use href="#dark" x="80" y="8"/><use href="#dark" x="88" y="8"/><use href="#bg" x="96" y="8"/><use href="#bg" x="104" y="8"/><use href="#bg" x="112" y="8"/><use href="#bg" x="120" y="8"/>

        <!-- Row 3 -->
        <use href="#bg" x="0" y="16"/><use href="#bg" x="16" y="16"/><use href="#dark" x="24" y="16"/><use href="#dark" x="32" y="16"/><use href="#px" x="40" y="16"/><use href="#px" x="48" y="16"/><use href="#px" x="56" y="16"/><use href="#px" x="64" y="16"/><use href="#px" x="72" y="16"/><use href="#px" x="80" y="16"/><use href="#dark" x="88" y="16"/><use href="#dark" x="96" y="16"/><use href="#bg" x="104" y="16"/><use href="#bg" x="112" y="16"/>

        <!-- Row 4 -->
        <use href="#bg" x="0" y="24"/><use href="#dark" x="16" y="24"/><use href="#px" x="24" y="24"/><use href="#px" x="32" y="24"/><use href="#px" x="40" y="24"/><use href="#px" x="48" y="24"/><use href="#px" x="56" y="24"/><use href="#px" x="64" y="24"/><use href="#px" x="72" y="24"/><use href="#px" x="80" y="24"/><use href="#px" x="88" y="24"/><use href="#px" x="96" y="24"/><use href="#dark" x="104" y="24"/><use href="#bg" x="112" y="24"/>

        <!-- Row 5 -->
        <use href="#dark" x="16" y="32"/><use href="#px" x="24" y="32"/><use href="#px" x="32" y="32"/><use href="#px" x="40" y="32"/><use href="#px" x="48" y="32"/><use href="#px" x="56" y="32"/><use href="#px" x="64" y="32"/><use href="#px" x="72" y="32"/><use href="#px" x="80" y="32"/><use href="#px" x="88" y="32"/><use href="#px" x="96" y="32"/><use href="#px" x="104" y="32"/><use href="#dark" x="112" y="32"/>

        <!-- Row 6 -->
        <use href="#dark" x="8" y="40"/><use href="#px" x="16" y="40"/><use href="#px" x="24" y="40"/><use href="#px" x="32" y="40"/><use href="#px" x="40" y="40"/><use href="#px" x="48" y="40"/><use href="#px" x="56" y="40"/><use href="#px" x="64" y="40"/><use href="#px" x="72" y="40"/><use href="#px" x="80" y="40"/><use href="#px" x="88" y="40"/><use href="#px" x="96" y="40"/><use href="#px" x="104" y="40"/><use href="#dark" x="112" y="40"/>

        <!-- Row 7 -->
        <use href="#dark" x="8" y="48"/><use href="#px" x="16" y="48"/><use href="#px" x="24" y="48"/><use href="#px" x="32" y="48"/><use href="#px" x="40" y="48"/><use href="#px" x="48" y="48"/><use href="#px" x="56" y="48"/><use href="#px" x="64" y="48"/><use href="#px" x="72" y="48"/><use href="#px" x="80" y="48"/><use href="#px" x="88" y="48"/><use href="#px" x="96" y="48"/><use href="#px" x="104" y="48"/><use href="#dark" x="112" y="48"/>

        <!-- Row 8 -->
        <use href="#dark" x="8" y="56"/><use href="#px" x="16" y="56"/><use href="#px" x="24" y="56"/><use href="#px" x="32" y="56"/><use href="#px" x="40" y="56"/><use href="#px" x="48" y="56"/><use href="#px" x="56" y="56"/><use href="#px" x="64" y="56"/><use href="#px" x="72" y="56"/><use href="#px" x="80" y="56"/><use href="#px" x="88" y="56"/><use href="#px" x="96" y="56"/><use href="#px" x="104" y="56"/><use href="#dark" x="112" y="56"/>

        <!-- Row 9 -->
        <use href="#dark" x="16" y="64"/><use href="#px" x="24" y="64"/><use href="#px" x="32" y="64"/><use href="#px" x="40" y="64"/><use href="#px" x="48" y="64"/><use href="#px" x="56" y="64"/><use href="#px" x="64" y="64"/><use href="#px" x="72" y="64"/><use href="#px" x="80" y="64"/><use href="#px" x="88" y="64"/><use href="#px" x="96" y="64"/><use href="#px" x="104" y="64"/><use href="#dark" x="112" y="64"/>

        <!-- Row 10 -->
        <use href="#dark" x="16" y="72"/><use href="#dark" x="24" y="72"/><use href="#px" x="32" y="72"/><use href="#px" x="40" y="72"/><use href="#px" x="48" y="72"/><use href="#px" x="56" y="72"/><use href="#px" x="64" y="72"/><use href="#px" x="72" y="72"/><use href="#px" x="80" y="72"/><use href="#px" x="88" y="72"/><use href="#px" x="96" y="72"/><use href="#dark" x="104" y="72"/><use href="#dark" x="112" y="72"/>

        <!-- Row 11 -->
        <use href="#bg" x="0" y="80"/><use href="#dark" x="24" y="80"/><use href="#dark" x="32" y="80"/><use href="#px" x="40" y="80"/><use href="#px" x="48" y="80"/><use href="#px" x="56" y="80"/><use href="#px" x="64" y="80"/><use href="#px" x="72" y="80"/><use href="#px" x="80" y="80"/><use href="#px" x="88" y="80"/><use href="#dark" x="96" y="80"/><use href="#dark" x="104" y="80"/><use href="#bg" x="112" y="80"/>

        <!-- Row 12 (Base) -->
        <use href="#bg" x="0" y="88"/><use href="#bg" x="8" y="88"/><use href="#bg" x="16" y="88"/><use href="#dark" x="32" y="88"/><use href="#dark" x="40" y="88"/><use href="#px" x="48" y="88"/><use href="#px" x="56" y="88"/><use href="#px" x="64" y="88"/><use href="#px" x="72" y="88"/><use href="#px" x="80" y="88"/><use href="#dark" x="88" y="88"/><use href="#dark" x="96" y="88"/><use href="#bg" x="104" y="88"/><use href="#bg" x="112" y="88"/>

        <!-- Row 13 -->
        <use href="#bg" x="0" y="96"/><use href="#bg" x="8" y="96"/><use href="#bg" x="16" y="96"/><use href="#dark" x="32" y="96"/><use href="#base" x="40" y="96"/><use href="#base" x="48" y="96"/><use href="#base" x="56" y="96"/><use href="#base" x="64" y="96"/><use href="#base" x="72" y="96"/><use href="#base" x="80" y="96"/><use href="#dark" x="88" y="96"/><use href="#bg" x="96" y="96"/><use href="#bg" x="104" y="96"/><use href="#bg" x="112" y="96"/>

        <!-- Row 14 -->
        <use href="#bg" x="0" y="104"/><use href="#bg" x="8" y="104"/><use href="#bg" x="16" y="104"/><use href="#dark" x="32" y="104"/><use href="#base" x="40" y="104"/><use href="#dark" x="48" y="104"/><use href="#dark" x="56" y="104"/><use href="#dark" x="64" y="104"/><use href="#dark" x="72" y="104"/><use href="#base" x="80" y="104"/><use href="#dark" x="88" y="104"/><use href="#bg" x="96" y="104"/><use href="#bg" x="104" y="104"/><use href="#bg" x="112" y="104"/>

        <!-- Row 15 -->
        <use href="#bg" x="0" y="112"/><use href="#bg" x="8" y="112"/><use href="#bg" x="16" y="112"/><use href="#dark" x="32" y="112"/><use href="#base" x="40" y="112"/><use href="#base" x="48" y="112"/><use href="#base" x="56" y="112"/><use href="#base" x="64" y="112"/><use href="#base" x="72" y="112"/><use href="#base" x="80" y="112"/><use href="#dark" x="88" y="112"/><use href="#bg" x="96" y="112"/><use href="#bg" x="104" y="112"/><use href="#bg" x="112" y="112"/>

        <!-- Row 16 -->
        <use href="#bg" x="0" y="120"/><use href="#bg" x="8" y="120"/><use href="#bg" x="16" y="120"/><use href="#bg" x="24" y="120"/><use href="#dark" x="32" y="120"/><use href="#dark" x="40" y="120"/><use href="#dark" x="48" y="120"/><use href="#dark" x="56" y="120"/><use href="#dark" x="64" y="120"/><use href="#dark" x="72" y="120"/><use href="#dark" x="80" y="120"/><use href="#dark" x="88" y="120"/><use href="#bg" x="96" y="120"/><use href="#bg" x="104" y="120"/><use href="#bg" x="112" y="120"/>
    </g>
</svg>
