<svg width="40" height="58" viewBox="0 0 40 58" fill="none" xmlns="http://www.w3.org/2000/svg">
<path d="M28.2157 58H12.2157V53H28.2157V58Z" fill="#E0F423"/>
<path d="M27.8431 51H11.3725L3.52941 44.5L0 33.5L1.19805e-05 18L4.70588 6.5L14.902 0H24.7059L33.3333 6.5L39.2157 18V33.5L35.2157 44.5L27.8431 51Z" fill="#E0F423"/>
<path d="M7 19.1644L10.6585 12.0685L19.1951 7L27.7317 12.0685L32 19.1644V30.8219L30.1707 38.4247L25.5 44H14.3171L8.82927 38.4247L7 30.8219V19.1644Z" fill="#27403D"/>
<path d="M13.8571 13.6579L19.5 10.5L21 14L16.5 16.5L13 22.5L10 21.5L13.8571 13.6579Z" fill="#E0F423"/>
</svg>
