<svg width="19" height="19" viewBox="0 0 19 19" fill="none" xmlns="http://www.w3.org/2000/svg">
<path fill-rule="evenodd" clip-rule="evenodd" d="M9.11458 1.5625C8.12283 1.5625 7.14079 1.75784 6.22453 2.13737C5.30827 2.5169 4.47573 3.07318 3.77445 3.77445C3.07318 4.47573 2.5169 5.30827 2.13737 6.22453C1.75784 7.14079 1.5625 8.12283 1.5625 9.11458C1.5625 10.1063 1.75784 11.0884 2.13737 12.0046C2.5169 12.9209 3.07318 13.7534 3.77445 14.4547C4.47573 15.156 5.30827 15.7123 6.22453 16.0918C7.14079 16.4713 8.12283 16.6667 9.11458 16.6667C11.1175 16.6667 13.0384 15.871 14.4547 14.4547C15.871 13.0384 16.6667 11.1175 16.6667 9.11458C16.6667 7.11165 15.871 5.19075 14.4547 3.77445C13.0384 2.35816 11.1175 1.5625 9.11458 1.5625ZM0 9.11458C0 6.69725 0.960284 4.37892 2.6696 2.6696C4.37892 0.960284 6.69725 0 9.11458 0C11.5319 0 13.8503 0.960284 15.5596 2.6696C17.2689 4.37892 18.2292 6.69725 18.2292 9.11458C18.2292 11.5319 17.2689 13.8503 15.5596 15.5596C13.8503 17.2689 11.5319 18.2292 9.11458 18.2292C6.69725 18.2292 4.37892 17.2689 2.6696 15.5596C0.960284 13.8503 0 11.5319 0 9.11458Z" fill="white"/>
<path fill-rule="evenodd" clip-rule="evenodd" d="M7.91666 6.31146C6.94423 7.11123 6.29442 8.23618 6.0875 9.47813L5.63125 12.2208C5.39479 13.6458 7.05104 14.601 8.16562 13.6844L10.3125 11.9177C11.2849 11.1179 11.9347 9.99299 12.1417 8.75104L12.5979 6.00834C12.8344 4.58334 11.1781 3.62813 10.0635 4.54479L7.91666 6.31146ZM9.11458 7.55209C8.70018 7.55209 8.30275 7.71671 8.00973 8.00973C7.7167 8.30276 7.55208 8.70019 7.55208 9.11459C7.55208 9.52899 7.7167 9.92641 8.00973 10.2194C8.30275 10.5125 8.70018 10.6771 9.11458 10.6771C9.52898 10.6771 9.92641 10.5125 10.2194 10.2194C10.5125 9.92641 10.6771 9.52899 10.6771 9.11459C10.6771 8.70019 10.5125 8.30276 10.2194 8.00973C9.92641 7.71671 9.52898 7.55209 9.11458 7.55209Z" fill="white"/>
</svg>
