<svg width="17" height="16" viewBox="0 0 17 16" fill="none" xmlns="http://www.w3.org/2000/svg">
<path d="M14.6057 11.6264C14.0924 11.131 13.4926 10.7267 12.8338 10.432C13.7628 9.70623 14.3555 8.5988 14.3555 7.35691C14.3555 5.1658 12.4606 3.36821 10.1883 3.40183C7.95093 3.43545 6.14829 5.19348 6.14829 7.35691C6.14829 8.5988 6.74302 9.70623 7.66997 10.432C7.01107 10.7265 6.41124 11.1308 5.8981 11.6264C4.77837 12.7081 4.14263 14.1359 4.10161 15.6586C4.10107 15.6797 4.10491 15.7007 4.11291 15.7204C4.1209 15.74 4.1329 15.7579 4.14819 15.7731C4.16348 15.7882 4.18175 15.8002 4.20193 15.8084C4.22211 15.8166 4.24378 15.8208 4.26568 15.8208H5.41411C5.5023 15.8208 5.57613 15.7535 5.57818 15.6685C5.61714 14.5215 6.09907 13.4477 6.94605 12.633C7.37946 12.2128 7.89498 11.8797 8.46279 11.653C9.03059 11.4262 9.63939 11.3103 10.254 11.312C11.5029 11.312 12.678 11.7807 13.5619 12.633C14.4068 13.4477 14.8887 14.5215 14.9297 15.6685C14.9318 15.7535 15.0056 15.8208 15.0938 15.8208H16.2422C16.2641 15.8208 16.2858 15.8166 16.306 15.8084C16.3262 15.8002 16.3444 15.7882 16.3597 15.7731C16.375 15.7579 16.387 15.74 16.395 15.7204C16.403 15.7007 16.4068 15.6797 16.4063 15.6586C16.3653 14.1359 15.7295 12.7081 14.6057 11.6264ZM10.254 9.88816C9.55259 9.88816 8.89224 9.62515 8.398 9.14658C8.14996 8.90929 7.95404 8.62625 7.82191 8.31435C7.68978 8.00245 7.62416 7.66809 7.62896 7.3312C7.63511 6.68257 7.90376 6.05569 8.37339 5.59097C8.86558 5.10449 9.52388 4.83357 10.2273 4.82566C10.9225 4.81973 11.5972 5.08076 12.0935 5.54944C12.6021 6.02998 12.881 6.67268 12.881 7.35691C12.881 8.03323 12.6083 8.66802 12.112 9.14658C11.8685 9.38249 11.5789 9.5695 11.26 9.6968C10.9411 9.82409 10.5991 9.88913 10.254 9.88816ZM5.11675 7.87898C5.09829 7.70693 5.08804 7.53291 5.08804 7.35691C5.08804 7.04248 5.1188 6.73596 5.17622 6.43735C5.19058 6.36616 5.15161 6.29299 5.08394 6.26333C4.80503 6.1427 4.54868 5.97659 4.3272 5.76697C4.06622 5.52295 3.86085 5.22916 3.7242 4.90433C3.58755 4.5795 3.52262 4.23077 3.53355 3.8804C3.552 3.24561 3.81656 2.64246 4.27798 2.18762C4.78452 1.6873 5.46538 1.4144 6.18931 1.42231C6.84351 1.42825 7.47515 1.67148 7.95298 2.10259C8.11499 2.24893 8.25445 2.41108 8.37134 2.58511C8.41236 2.64641 8.49234 2.67212 8.56206 2.64839C8.923 2.52776 9.30445 2.44272 9.69615 2.40317C9.81099 2.39131 9.87661 2.27266 9.82534 2.17378C9.15884 0.902222 7.79712 0.0241945 6.22212 0.000464005C3.94781 -0.0331542 2.05288 1.76443 2.05288 3.95356C2.05288 5.19546 2.64556 6.30288 3.57456 7.02864C2.92241 7.31934 2.32154 7.72078 1.80064 8.22307C0.676809 9.30478 0.0410669 10.7326 5.12818e-05 12.2573C-0.000496082 12.2784 0.00334304 12.2994 0.0113425 12.319C0.019342 12.3387 0.03134 12.3566 0.0466295 12.3717C0.0619189 12.3868 0.0801907 12.3988 0.100368 12.407C0.120545 12.4152 0.142219 12.4194 0.164114 12.4194H1.3146C1.40279 12.4194 1.47661 12.3522 1.47866 12.2671C1.51763 11.1202 1.99956 10.0464 2.84654 9.23162C3.44947 8.65022 4.18775 8.2468 4.9937 8.05103C5.07368 8.03125 5.127 7.95808 5.11675 7.87898Z" fill="#F6FDFF"/>
</svg>
