<svg width="19" height="19" viewBox="0 0 19 19" fill="none" xmlns="http://www.w3.org/2000/svg">
<path d="M1.425 15.3043C1.80293 15.3043 2.16539 15.4555 2.43263 15.7246C2.69987 15.9937 2.85 16.3586 2.85 16.7391C2.85 17.1197 2.69987 17.4846 2.43263 17.7537C2.16539 18.0228 1.80293 18.1739 1.425 18.1739C1.04707 18.1739 0.684612 18.0228 0.417373 17.7537C0.150134 17.4846 0 17.1197 0 16.7391C0 16.3586 0.150134 15.9937 0.417373 15.7246C0.684612 15.4555 1.04707 15.3043 1.425 15.3043ZM6.175 12.4348C6.80489 12.4348 7.40898 12.6867 7.85438 13.1352C8.29978 13.5836 8.55 14.1919 8.55 14.8261C8.55 15.4603 8.29978 16.0685 7.85438 16.517C7.40898 16.9655 6.80489 17.2174 6.175 17.2174C5.54511 17.2174 4.94102 16.9655 4.49562 16.517C4.05022 16.0685 3.8 15.4603 3.8 14.8261C3.8 14.1919 4.05022 13.5836 4.49562 13.1352C4.94102 12.6867 5.54511 12.4348 6.175 12.4348ZM11.875 11.4783C10.7445 11.4783 9.7185 11 9.025 10.187C8.3315 11 7.3055 11.4783 6.175 11.4783C4.313 11.4783 2.7645 10.1296 2.4415 8.36C1.72406 8.08064 1.10712 7.58966 0.671482 6.95133C0.23584 6.31301 0.00179693 5.55711 0 4.78261C0 3.76787 0.400356 2.79469 1.11299 2.07716C1.82563 1.35963 2.79218 0.956522 3.8 0.956522L4.5315 1.02348C5.225 0.392174 6.1275 0 7.125 0C8.2555 0 9.2815 0.478261 9.975 1.2913C10.6685 0.478261 11.6945 0 12.825 0C14.687 0 16.2355 1.3487 16.5585 3.11826C17.2759 3.39762 17.8929 3.88861 18.3285 4.52693C18.7642 5.16525 18.9982 5.92115 19 6.69565C19 7.71039 18.5996 8.68357 17.887 9.40111C17.1744 10.1186 16.2078 10.5217 15.2 10.5217L14.4685 10.4548C13.775 11.0861 12.8725 11.4783 11.875 11.4783ZM3.8 2.86957C3.29609 2.86957 2.81282 3.07112 2.4565 3.42988C2.10018 3.78865 1.9 4.27524 1.9 4.78261C1.9 5.28998 2.10018 5.77657 2.4565 6.13533C2.81282 6.4941 3.29609 6.69565 3.8 6.69565C4.1135 6.69565 4.408 6.61913 4.674 6.48522C4.41661 6.81914 4.27631 7.22949 4.275 7.65217C4.275 8.15955 4.47518 8.64614 4.8315 9.0049C5.18782 9.36367 5.67109 9.56522 6.175 9.56522C6.745 9.56522 7.258 9.30696 7.6 8.90522L8.9965 7.29826L10.45 8.93391C10.811 9.31652 11.3145 9.56522 11.875 9.56522C12.825 9.56522 13.6135 8.85739 13.775 7.93913C14.098 8.35044 14.6205 8.6087 15.2 8.6087C15.7039 8.6087 16.1872 8.40714 16.5435 8.04838C16.8998 7.68961 17.1 7.20302 17.1 6.69565C17.1 6.18828 16.8998 5.70169 16.5435 5.34293C16.1872 4.98416 15.7039 4.78261 15.2 4.78261C14.8865 4.78261 14.592 4.85913 14.326 4.99304C14.5834 4.65912 14.7237 4.24877 14.725 3.82609C14.725 3.31872 14.5248 2.83213 14.1685 2.47336C13.8122 2.1146 13.3289 1.91304 12.825 1.91304C12.2645 1.91304 11.761 2.16174 11.4 2.54435L9.9465 4.18L8.55 2.57304C8.208 2.1713 7.695 1.91304 7.125 1.91304C6.175 1.91304 5.3865 2.62087 5.225 3.53913C4.902 3.12783 4.3795 2.86957 3.8 2.86957ZM6.175 13.8696C5.92304 13.8696 5.68141 13.9703 5.50325 14.1497C5.32509 14.3291 5.225 14.5724 5.225 14.8261C5.225 15.0798 5.32509 15.3231 5.50325 15.5025C5.68141 15.6818 5.92304 15.7826 6.175 15.7826C6.42696 15.7826 6.66859 15.6818 6.84675 15.5025C7.02491 15.3231 7.125 15.0798 7.125 14.8261C7.125 14.5724 7.02491 14.3291 6.84675 14.1497C6.66859 13.9703 6.42696 13.8696 6.175 13.8696Z" fill="white"/>
</svg>
